<svg xmlns="http://www.w3.org/2000/svg" width="600" height="150" viewBox="0 0 600 150"><svg x="12" y="9" width="86" height="119" viewBox="0 0 197 272"><defs><linearGradient id="pgrad3" x1="38" y1="8" x2="92" y2="258" gradientUnits="userSpaceOnUse"><stop offset="0" stop-color="#6B1FA3"/><stop offset="0.48" stop-color="#6B1FA3"/><stop offset="0.76" stop-color="#C2187A"/><stop offset="1" stop-color="#FF5A5F"/></linearGradient><linearGradient id="ograd3" x1="92" y1="42" x2="178" y2="258" gradientUnits="userSpaceOnUse"><stop offset="0" stop-color="#FF5A5F"/><stop offset="0.34" stop-color="#FF8A3D"/><stop offset="0.67" stop-color="#FF5A5F"/><stop offset="1" stop-color="#FF8A3D"/></linearGradient><linearGradient id="hp3" x1="34" y1="1" x2="70" y2="38" gradientUnits="userSpaceOnUse"><stop offset="0" stop-color="#6B1FA3"/><stop offset=".62" stop-color="#C2187A"/><stop offset="1" stop-color="#FF5A5F"/></linearGradient><linearGradient id="ho3" x1="109" y1="17" x2="141" y2="48" gradientUnits="userSpaceOnUse"><stop offset="0" stop-color="#FF5A5F"/><stop offset=".58" stop-color="#FF8A3D"/><stop offset="1" stop-color="#FFC107"/></linearGradient></defs><circle cx="52" cy="18" r="18" fill="url(#hp3)"/><circle cx="125" cy="31" r="16" fill="url(#ho3)"/><path fill="url(#ograd3)" d="M70,65 C78,61 91,60 104,61 C119,61 133,62 143,67 C152,72 157,81 157,91 C157,103 153,115 147,128 C141,141 137,152 136,164 C135,177 140,190 148,203 C159,221 174,243 190,268 C174,260 157,253 139,247 C121,241 104,237 88,234 C76,232 64,232 52,233 C63,220 74,207 85,193 C96,178 104,164 109,151 C114,138 116,126 113,115 C111,104 106,95 98,87 C91,80 81,75 74,71 C69,68 68,66 70,65 Z"/><path fill="url(#pgrad3)" d="M42,50 C54,48 68,50 81,55 C70,55 62,58 59,63 C57,67 60,72 65,77 C74,84 83,91 89,100 C98,113 103,126 104,139 C105,151 101,162 95,173 C88,185 78,196 66,207 C54,218 43,229 31,240 C19,251 8,262 0,272 C6,252 15,234 26,217 C37,199 48,182 57,165 C66,148 71,135 70,123 C69,112 62,105 52,99 C42,93 31,87 24,80 C17,73 18,65 25,59 C34,51 48,49 61,50 C68,50 75,52 81,55 Z"/></svg><svg x="111" y="28" width="420" height="97" viewBox="0 0 420 100"><defs><linearGradient id="wg3" x1="0" y1="0" x2="420" y2="0" gradientUnits="userSpaceOnUse"><stop offset="0" stop-color="#6B1FA3"/><stop offset=".57" stop-color="#6B1FA3"/><stop offset=".61" stop-color="#FF5A5F"/><stop offset=".84" stop-color="#FF8A3D"/><stop offset="1" stop-color="#FFC107"/></linearGradient></defs><g fill="none" stroke="url(#wg3)" stroke-width="9" stroke-linecap="butt" stroke-linejoin="round"><path fill="url(#wg3)" stroke="none" d="M4,15 L25,15 C48,15 61,29 61,50 C61,70 48,85 25,85 L4,85 L7,72 C10,59 16,45 26,33 L34,25 C29,36 25,49 22,63 C21,68 21,73 21,76 L26,76 C42,76 51,66 51,50 C51,34 41,24 25,24 L9,24 Z"/><path d="M108,61 C108,49 100,41 89,41 C78,41 70,50 70,62 C70,74 78,83 90,83 C101,83 108,75 108,63 M108,41 V84"/><path d="M119,84 V42 M119,55 C124,46 132,42 140,42 C151,42 157,50 157,61 V84"/><path d="M199,49 C194,44 188,41 181,41 C170,41 162,50 162,62 C162,74 170,83 182,83 C190,83 196,80 201,74"/><path d="M207,62 H244 C243,50 235,42 224,42 C213,42 205,50 205,62 C205,75 214,83 226,83 C234,83 241,80 246,75"/><path fill="url(#wg3)" stroke="none" d="M251,18 H291 V27 H261 V48 H287 V57 H261 V84 H251 Z"/><path fill="url(#wg3)" stroke="none" d="M296,18 H305 V84 H296 Z"/><path d="M328,42 C317,42 310,50 310,62 C310,75 317,83 328,83 C340,83 347,75 347,62 C347,50 340,42 328,42 Z"/><path d="M354,43 L368,82 L383,52 L398,82 L414,43" stroke-width="10" stroke-linejoin="miter"/></g></svg></svg>